<svg width="50" height="50" viewBox="0 0 50 50" fill="none" xmlns="http://www.w3.org/2000/svg">
<g clip-path="url(#clip0_35_82)">
<path d="M2.5 17.5V43.5C2.5 44.9002 2.5 45.5998 2.77247 46.1345C3.01217 46.605 3.39435 46.988 3.86475 47.2277C4.399 47.5 5.09875 47.5 6.49615 47.5H32.5003M30 27.5V20M30 20V12.5M30 20H22.5M30 20H37.5M12.5 29.5005V10.5005C12.5 7.70023 12.5 6.29905 13.045 5.2295C13.5243 4.28868 14.2887 3.52432 15.2295 3.04497C16.299 2.5 17.7002 2.5 20.5005 2.5H39.5005C42.3007 2.5 43.7002 2.5 44.7697 3.04497C45.7105 3.52432 46.4762 4.28868 46.9555 5.2295C47.5005 6.29905 47.5005 7.69922 47.5005 10.4994V29.4995C47.5005 32.2997 47.5005 33.7 46.9555 34.7695C46.4762 35.7102 45.7105 36.4762 44.7697 36.9555C43.7012 37.5 42.3038 37.5 39.509 37.5H20.4923C17.6975 37.5 16.298 37.5 15.2295 36.9555C14.2887 36.4762 13.5243 35.7105 13.045 34.7697C12.5 33.7002 12.5 32.3008 12.5 29.5005Z" stroke="white" stroke-width="5" stroke-linecap="round" stroke-linejoin="round"/>
</g>
<defs>
<clipPath id="clip0_35_82">
<rect width="50" height="50" fill="white"/>
</clipPath>
</defs>
</svg>
