<svg width="712" height="712" viewBox="0 0 712 712" fill="none" xmlns="http://www.w3.org/2000/svg">
<g filter="url(#filter0_i_11_3)">
<path fill-rule="evenodd" clip-rule="evenodd" d="M423.776 593.44C557.347 562.891 657 443.333 657 300.5C657 134.538 522.462 0 356.5 0C190.538 0 56 134.538 56 300.5C56 442.418 154.38 561.358 286.661 592.842L355.391 711.886L423.776 593.44Z" fill="#0F5AB1"/>
</g>
<g clip-path="url(#clip0_11_3)">
<g opacity="0.25" filter="url(#filter1_f_11_3)">
<ellipse cx="361.191" cy="441.113" rx="111.179" ry="5.89583" fill="#424242"/>
</g>
<path d="M539.25 236.875V165.625C539.25 145.853 523.219 130 503.625 130H218.625C199.031 130 183 145.853 183 165.625V236.875C202.772 236.875 218.625 252.906 218.625 272.5C218.625 292.094 202.772 308.125 183 308.125V379.375C183 398.969 199.031 415 218.625 415H503.625C523.219 415 539.25 398.969 539.25 379.375V308.125C519.656 308.125 503.625 292.094 503.625 272.5C503.625 252.906 519.656 236.875 539.25 236.875ZM503.625 210.869C482.428 223.159 468 246.316 468 272.5C468 298.684 482.428 321.841 503.625 334.131V379.375H218.625V334.131C239.822 321.841 254.25 298.684 254.25 272.5C254.25 245.781 240 223.159 218.625 210.869V165.625H503.625V210.869ZM343.312 325.938H378.938V361.562H343.312M343.312 254.688H378.938V290.312H343.312M343.312 183.438H378.938V219.062H343.312V183.438Z" fill="white"/>
</g>
<path d="M287.473 464.92V470.4H280.033V493H273.193V470.4H265.753V464.92H287.473ZM294.346 468.36C293.146 468.36 292.159 468.013 291.386 467.32C290.639 466.6 290.266 465.72 290.266 464.68C290.266 463.613 290.639 462.733 291.386 462.04C292.159 461.32 293.146 460.96 294.346 460.96C295.519 460.96 296.479 461.32 297.226 462.04C297.999 462.733 298.386 463.613 298.386 464.68C298.386 465.72 297.999 466.6 297.226 467.32C296.479 468.013 295.519 468.36 294.346 468.36ZM297.746 470.68V493H290.906V470.68H297.746ZM316.343 493L309.543 483.64V493H302.703V463.4H309.543V479.76L316.303 470.68H324.743L315.463 481.88L324.823 493H316.343ZM348.469 481.48C348.469 482.12 348.429 482.787 348.349 483.48H332.869C332.976 484.867 333.416 485.933 334.189 486.68C334.989 487.4 335.962 487.76 337.109 487.76C338.816 487.76 340.002 487.04 340.669 485.6H347.949C347.576 487.067 346.896 488.387 345.909 489.56C344.949 490.733 343.736 491.653 342.269 492.32C340.802 492.987 339.162 493.32 337.349 493.32C335.162 493.32 333.216 492.853 331.509 491.92C329.802 490.987 328.469 489.653 327.509 487.92C326.549 486.187 326.069 484.16 326.069 481.84C326.069 479.52 326.536 477.493 327.469 475.76C328.429 474.027 329.762 472.693 331.469 471.76C333.176 470.827 335.136 470.36 337.349 470.36C339.509 470.36 341.429 470.813 343.109 471.72C344.789 472.627 346.096 473.92 347.029 475.6C347.989 477.28 348.469 479.24 348.469 481.48ZM341.469 479.68C341.469 478.507 341.069 477.573 340.269 476.88C339.469 476.187 338.469 475.84 337.269 475.84C336.122 475.84 335.149 476.173 334.349 476.84C333.576 477.507 333.096 478.453 332.909 479.68H341.469ZM364.518 487.2V493H361.038C358.558 493 356.624 492.4 355.238 491.2C353.851 489.973 353.158 487.987 353.158 485.24V476.36H350.438V470.68H353.158V465.24H359.998V470.68H364.478V476.36H359.998V485.32C359.998 485.987 360.158 486.467 360.478 486.76C360.798 487.053 361.331 487.2 362.078 487.2H364.518ZM392.648 464.92V493H385.808V481.44H375.168V493H368.328V464.92H375.168V475.92H385.808V464.92H392.648ZM419.625 470.68V493H412.785V489.96C412.092 490.947 411.145 491.747 409.945 492.36C408.772 492.947 407.465 493.24 406.025 493.24C404.319 493.24 402.812 492.867 401.505 492.12C400.199 491.347 399.185 490.24 398.465 488.8C397.745 487.36 397.385 485.667 397.385 483.72V470.68H404.185V482.8C404.185 484.293 404.572 485.453 405.345 486.28C406.119 487.107 407.159 487.52 408.465 487.52C409.799 487.52 410.852 487.107 411.625 486.28C412.399 485.453 412.785 484.293 412.785 482.8V470.68H419.625ZM431.378 473.84C432.018 472.8 432.938 471.96 434.138 471.32C435.338 470.68 436.712 470.36 438.258 470.36C440.098 470.36 441.765 470.827 443.258 471.76C444.752 472.693 445.925 474.027 446.778 475.76C447.658 477.493 448.098 479.507 448.098 481.8C448.098 484.093 447.658 486.12 446.778 487.88C445.925 489.613 444.752 490.96 443.258 491.92C441.765 492.853 440.098 493.32 438.258 493.32C436.685 493.32 435.312 493.013 434.138 492.4C432.965 491.76 432.045 490.92 431.378 489.88V493H424.538V463.4H431.378V473.84ZM441.138 481.8C441.138 480.093 440.658 478.76 439.698 477.8C438.765 476.813 437.605 476.32 436.218 476.32C434.858 476.32 433.698 476.813 432.738 477.8C431.805 478.787 431.338 480.133 431.338 481.84C431.338 483.547 431.805 484.893 432.738 485.88C433.698 486.867 434.858 487.36 436.218 487.36C437.578 487.36 438.738 486.867 439.698 485.88C440.658 484.867 441.138 483.507 441.138 481.8Z" fill="white"/>
<defs>
<filter id="filter0_i_11_3" x="46" y="0" width="611" height="721.886" filterUnits="userSpaceOnUse" color-interpolation-filters="sRGB">
<feFlood flood-opacity="0" result="BackgroundImageFix"/>
<feBlend mode="normal" in="SourceGraphic" in2="BackgroundImageFix" result="shape"/>
<feColorMatrix in="SourceAlpha" type="matrix" values="0 0 0 0 0 0 0 0 0 0 0 0 0 0 0 0 0 0 127 0" result="hardAlpha"/>
<feOffset dx="-12" dy="15"/>
<feGaussianBlur stdDeviation="5"/>
<feComposite in2="hardAlpha" operator="arithmetic" k2="-1" k3="1"/>
<feColorMatrix type="matrix" values="0 0 0 0 1 0 0 0 0 1 0 0 0 0 1 0 0 0 0.25 0"/>
<feBlend mode="normal" in2="shape" result="effect1_innerShadow_11_3"/>
</filter>
<filter id="filter1_f_11_3" x="240.012" y="425.217" width="242.357" height="31.7917" filterUnits="userSpaceOnUse" color-interpolation-filters="sRGB">
<feFlood flood-opacity="0" result="BackgroundImageFix"/>
<feBlend mode="normal" in="SourceGraphic" in2="BackgroundImageFix" result="shape"/>
<feGaussianBlur stdDeviation="5" result="effect1_foregroundBlur_11_3"/>
</filter>
<clipPath id="clip0_11_3">
<rect width="341.958" height="341.958" fill="white" transform="translate(186 116)"/>
</clipPath>
</defs>
</svg>
