<svg width="60" height="60" viewBox="0 0 60 60" fill="none" xmlns="http://www.w3.org/2000/svg">
<path fill-rule="evenodd" clip-rule="evenodd" d="M17.4001 10.325C17.1615 10.0873 16.9913 9.78971 16.9074 9.46351C16.8236 9.13731 16.8291 8.79454 16.9235 8.47123C17.0179 8.14792 17.1976 7.856 17.4438 7.62615C17.69 7.39629 17.9936 7.237 18.3226 7.165L30.2401 4.5525C30.5472 4.48529 30.8663 4.49639 31.1681 4.58478C31.4698 4.67317 31.7445 4.83601 31.9668 5.05833C32.1891 5.28065 32.3519 5.5553 32.4403 5.85703C32.5287 6.15876 32.5398 6.47787 32.4726 6.785L29.8576 18.7025C29.7854 19.0307 29.6263 19.3335 29.3969 19.5792C29.1676 19.8249 28.8764 20.0044 28.5539 20.0989C28.2314 20.1935 27.8894 20.1996 27.5637 20.1167C27.238 20.0337 26.9406 19.8648 26.7026 19.6275L17.3976 10.3225L17.4001 10.325ZM34.2426 56.4875C36.298 56.4875 38.2693 55.671 39.7227 54.2176C41.1761 52.7642 41.9926 50.7929 41.9926 48.7375C41.9926 46.6821 41.1761 44.7108 39.7227 43.2574C38.2693 41.804 36.298 40.9875 34.2426 40.9875C32.1872 40.9875 30.2159 41.804 28.7625 43.2574C27.3091 44.7108 26.4926 46.6821 26.4926 48.7375C26.4926 50.7929 27.3091 52.7642 28.7625 54.2176C30.2159 55.671 32.1872 56.4875 34.2426 56.4875ZM18.5176 18.5075C18.0488 18.0388 17.413 17.7755 16.7501 17.7755C16.0872 17.7755 15.4514 18.0388 14.9826 18.5075L9.2251 24.2625C8.23931 25.2482 7.45733 26.4184 6.92383 27.7064C6.39032 28.9943 6.11572 30.3747 6.11572 31.7688C6.11572 33.1628 6.39032 34.5432 6.92383 35.8311C7.45733 37.1191 8.23931 38.2893 9.2251 39.275L9.2351 39.2825C11.2296 41.2719 13.9321 42.3885 16.7491 42.3871C19.5662 42.3857 22.2676 41.2664 24.2601 39.275L39.2726 24.2625C41.4726 22.0625 45.0351 22.0625 47.2351 24.2575C49.4301 26.4475 49.4326 30.0025 47.2426 32.1975L47.2376 32.2L42.8126 36.625C42.3435 37.0938 42.0798 37.7297 42.0796 38.3929C42.0794 39.056 42.3426 39.6922 42.8113 40.1613C43.2801 40.6304 43.916 40.894 44.5792 40.8943C45.2424 40.8945 45.8785 40.6313 46.3476 40.1625L50.7726 35.7375L50.7826 35.7275C52.7704 33.7346 53.8853 31.0337 53.882 28.2189C53.8787 25.4041 52.7575 22.7058 50.7651 20.7175C48.7706 18.7281 46.0681 17.6115 43.251 17.6129C40.434 17.6143 37.7326 18.7336 35.7401 20.725L20.7251 35.7375C18.5276 37.9375 14.9651 37.9375 12.7626 35.7375C11.7106 34.6846 11.1197 33.2571 11.1197 31.7688C11.1197 30.2804 11.7106 28.8529 12.7626 27.8L18.5176 22.0425C18.9863 21.5737 19.2496 20.9379 19.2496 20.275C19.2496 19.6121 18.9863 18.9763 18.5176 18.5075Z" fill="white"/>
</svg>
