<svg width="512" height="512" viewBox="0 0 512 512" fill="none" xmlns="http://www.w3.org/2000/svg">
<g clip-path="url(#clip0_33_56)">
<path d="M170.137 222.607H119.256V273.492H170.137V222.607Z" fill="white"/>
<path d="M392.744 222.607H341.863V273.492H392.744V222.607Z" fill="white"/>
<path d="M318.543 222.607H267.662V273.492H318.543V222.607Z" fill="white"/>
<path d="M170.137 302.11H119.256V352.995H170.137V302.11Z" fill="white"/>
<path d="M318.543 302.11H267.662V352.995H318.543V302.11Z" fill="white"/>
<path d="M244.341 302.11H193.46V352.995H244.341V302.11Z" fill="white"/>
<path d="M392.744 381.612H341.863V432.497H392.744V381.612Z" fill="white"/>
<path d="M318.543 381.612H267.662V432.497H318.543V381.612Z" fill="white"/>
<path d="M244.341 381.612H193.46V432.497H244.341V381.612Z" fill="white"/>
<path d="M439.277 55.046H397.901V94.716C397.901 109.518 385.706 121.556 370.718 121.556H316.693C301.705 121.556 289.511 109.518 289.511 94.716V55.046H222.417V94.343C222.417 109.351 210.088 121.556 194.933 121.556H141.509C126.354 121.556 114.025 109.351 114.025 94.343V55.046H72.649C45.743 55.046 23.853 76.738 23.853 103.4V463.646C23.853 490.307 45.743 512 72.649 512H439.277C466.224 512 488.147 490.308 488.147 463.646V103.4C488.147 76.739 466.224 55.046 439.277 55.046ZM453.167 462.707C453.167 471.267 447.416 477.016 438.856 477.016H73.144C64.584 477.016 58.833 471.267 58.833 462.707V178.089H453.167V462.707Z" fill="white"/>
<path d="M141.525 102.507H194.917C199.438 102.507 203.116 98.854 203.116 94.363V20.493C203.116 9.193 193.846 0 182.45 0H153.991C142.596 0 133.323 9.192 133.323 20.493V94.363C133.324 98.854 137.002 102.507 141.525 102.507Z" fill="white"/>
<path d="M316.693 102.507H370.718C375.066 102.507 378.602 98.994 378.602 94.681V20.178C378.602 9.053 369.474 0 358.251 0H329.16C317.939 0 308.811 9.053 308.811 20.178V94.681C308.81 98.994 312.347 102.507 316.693 102.507Z" fill="white"/>
</g>
<defs>
<clipPath id="clip0_33_56">
<rect width="512" height="512" fill="white"/>
</clipPath>
</defs>
</svg>
