<svg width="60" height="60" viewBox="0 0 60 60" fill="none" xmlns="http://www.w3.org/2000/svg">
<path d="M35 15H15C12.6703 15 11.5048 15 10.5859 15.3806C9.3608 15.8881 8.38808 16.862 7.8806 18.0871C7.5 19.006 7.5 20.1709 7.5 22.5006C11.6421 22.5006 15 25.8572 15 29.9995C15 34.1415 11.6421 37.5 7.5 37.5C7.5 39.8298 7.5 40.9945 7.8806 41.9135C8.38808 43.1385 9.3608 44.1118 10.5859 44.6193C11.5048 44.9998 12.6703 45 15 45H35M35 15H45C47.3298 15 48.4945 15 49.4135 15.3806C50.6385 15.8881 51.6118 16.862 52.1193 18.0871C52.4998 19.006 52.4998 20.1709 52.4998 22.5006C48.3575 22.5006 45 25.8577 45 30C45 34.1423 48.3575 37.5 52.4998 37.5C52.4998 39.8298 52.4998 40.9945 52.1193 41.9135C51.6118 43.1385 50.6385 44.1118 49.4135 44.6193C48.4945 44.9998 47.3298 45 45 45H35M35 15V45" stroke="white" stroke-width="5" stroke-linecap="round" stroke-linejoin="round"/>
</svg>
