<svg width="61" height="61" viewBox="0 0 61 61" fill="none" xmlns="http://www.w3.org/2000/svg">
<g clip-path="url(#clip0_33_20)">
<path d="M49.2654 0.8974H11.7654C5.55444 0.8974 0.515381 5.93271 0.515381 12.1474V49.6474C0.515381 51.7202 2.19257 53.3974 4.26538 53.3974H8.01538V57.1474C8.01538 59.2202 9.69257 60.8974 11.7654 60.8974H15.5154C17.5882 60.8974 19.2654 59.2202 19.2654 57.1474V53.3974H41.7654V57.1474C41.7654 59.2202 43.4426 60.8974 45.5154 60.8974H49.2654C51.3382 60.8974 53.0154 59.2202 53.0154 57.1474V53.3974H56.7654C58.8382 53.3974 60.5154 51.7202 60.5154 49.6474V12.1474C60.5154 5.93646 55.4801 0.8974 49.2654 0.8974ZM15.5154 42.1474C13.4426 42.1474 11.7654 40.4702 11.7654 38.3974C11.7654 36.3246 13.4426 34.6474 15.5154 34.6474C17.5882 34.6474 19.2654 36.3246 19.2654 38.3974C19.2654 40.4702 17.5882 42.1474 15.5154 42.1474ZM45.5154 42.1474C43.4426 42.1474 41.7654 40.4702 41.7654 38.3974C41.7654 36.3246 43.4426 34.6474 45.5154 34.6474C47.5882 34.6474 49.2654 36.3246 49.2654 38.3974C49.2654 40.4702 47.5882 42.1474 45.5154 42.1474ZM53.0154 23.3974H8.01538V12.1474C8.01538 10.0746 9.69257 8.3974 11.7654 8.3974H49.2654C51.3382 8.3974 53.0154 10.0746 53.0154 12.1474V23.3974Z" fill="white"/>
</g>
<defs>
<clipPath id="clip0_33_20">
<rect width="60" height="60" fill="white" transform="translate(0.515381 0.8974)"/>
</clipPath>
</defs>
</svg>
