<svg width="60" height="60" viewBox="0 0 60 60" fill="none" xmlns="http://www.w3.org/2000/svg">
<path d="M31.23 1.92938C34.2994 1.88251 37.3463 1.90688 40.3913 1.88251C40.4925 5.69063 42.0375 9.11813 44.4956 11.6569L44.4919 11.6531C47.1375 14.0363 50.58 15.5813 54.375 15.8438L54.4275 15.8475V25.29C50.8425 25.2 47.4713 24.3731 44.4319 22.9519L44.5856 23.0156C43.1156 22.3088 41.8725 21.5831 40.6913 20.7731L40.7888 20.8369C40.7663 27.6788 40.8113 34.5206 40.7419 41.3381C40.5488 44.8125 39.3938 47.9813 37.5413 50.6269L37.5788 50.5688C34.4813 55.005 29.4638 57.9169 23.7581 58.0894H23.7319C23.5013 58.1006 23.2294 58.1063 22.9556 58.1063C19.7119 58.1063 16.68 57.2025 14.0963 55.6331L14.1713 55.6763C9.46876 52.8469 6.22501 48.0056 5.62501 42.375L5.61751 42.2981C5.57064 41.1263 5.54814 39.9544 5.59501 38.8069C6.51376 29.8463 14.0213 22.9144 23.1469 22.9144C24.1725 22.9144 25.1775 23.0025 26.1544 23.1694L26.0494 23.1544C26.0963 26.6213 25.9556 30.09 25.9556 33.5569C25.1625 33.27 24.2475 33.1031 23.2931 33.1031C19.7906 33.1031 16.8113 35.3419 15.7088 38.4675L15.6919 38.5238C15.4425 39.3244 15.2981 40.245 15.2981 41.1975C15.2981 41.5838 15.3225 41.9663 15.3675 42.3413L15.3638 42.2963C15.9863 46.1325 19.275 49.0275 23.2406 49.0275C23.355 49.0275 23.4675 49.0256 23.58 49.02H23.5631C26.3063 48.9375 28.6875 47.4619 30.0338 45.2813L30.0525 45.2475C30.5531 44.55 30.8963 43.7063 31.0106 42.7894L31.0125 42.7631C31.2469 38.5688 31.1531 34.3988 31.1756 30.2044C31.1981 20.7619 31.1531 11.3419 31.2225 1.92376L31.23 1.92938Z" fill="white"/>
</svg>
